<svg width="10" height="16" viewBox="0 0 10 16" fill="none" xmlns="http://www.w3.org/2000/svg">
<path d="M8.93465 14.463C9.01036 14.5381 9.05295 14.6403 9.05295 14.747C9.05295 14.8536 9.01036 14.9558 8.93465 15.0309L8.08678 15.8788C8.0142 15.9561 7.91287 16 7.80682 16C7.70077 16 7.59944 15.9561 7.52686 15.8788L0.175977 8.52792C0.06344 8.41552 0.000144681 8.26303 4.50499e-06 8.10398L4.52317e-06 7.89602C0.000144727 7.73696 0.0634401 7.58448 0.175977 7.47208L7.52686 0.121197C7.59944 0.043866 7.70077 -1.18212e-07 7.80682 -1.0894e-07C7.91287 -9.96687e-08 8.0142 0.0438661 8.08678 0.121197L8.93465 0.969068C9.01036 1.04416 9.05295 1.14639 9.05295 1.25303C9.05295 1.35966 9.01036 1.46189 8.93465 1.53698L2.47163 8L8.93465 14.463Z" fill="black"/>
</svg>
