<svg width="12" height="13" viewBox="0 0 12 13" fill="none" xmlns="http://www.w3.org/2000/svg">
<path fill-rule="evenodd" clip-rule="evenodd" d="M0 6.06277C0 2.7144 2.68629 0 6 0C7.5913 0 9.11742 0.638755 10.2426 1.77575C11.3679 2.91274 12 4.45483 12 6.06277C12 9.41115 9.31371 12.1255 6 12.1255C2.68629 12.1255 0 9.41115 0 6.06277ZM7.94492 7.40267C7.94492 7.32228 7.91201 7.24548 7.854 7.19047L6.74401 6.06281L7.854 4.93514C7.91201 4.88013 7.94492 4.80333 7.94492 4.72295C7.94492 4.64256 7.91201 4.56576 7.854 4.51075L7.53601 4.18943C7.48157 4.13081 7.40556 4.09756 7.32601 4.09756C7.24646 4.09756 7.17045 4.13081 7.11601 4.18943L6.00002 5.31103L4.88402 4.18943C4.82958 4.13081 4.75357 4.09756 4.67402 4.09756C4.59447 4.09756 4.51846 4.13081 4.46402 4.18943L4.14603 4.51075C4.08802 4.56576 4.05511 4.64256 4.05511 4.72295C4.05511 4.80333 4.08802 4.88013 4.14603 4.93514L5.25602 6.06281L4.14603 7.19047C4.08802 7.24548 4.05511 7.32228 4.05511 7.40267C4.05511 7.48305 4.08802 7.55985 4.14603 7.61486L4.46402 7.93618C4.51846 7.9948 4.59447 8.02805 4.67402 8.02805C4.75357 8.02805 4.82958 7.9948 4.88402 7.93618L6.00002 6.81458L7.11601 7.93618C7.17045 7.9948 7.24646 8.02805 7.32601 8.02805C7.40556 8.02805 7.48157 7.9948 7.53601 7.93618L7.854 7.61486C7.91201 7.55985 7.94492 7.48305 7.94492 7.40267Z" fill="#D8D8D8"/>
</svg>
