<svg width="22" height="17" viewBox="0 0 22 17" fill="none" xmlns="http://www.w3.org/2000/svg">
<path fill-rule="evenodd" clip-rule="evenodd" d="M19.125 0H2.125C0.951395 0 0 0.901323 0 2.01316V14.0921C0 15.204 0.951395 16.1053 2.125 16.1053H19.125C20.2986 16.1053 21.25 15.204 21.25 14.0921V2.01316C21.25 0.901323 20.2986 0 19.125 0ZM19.125 2.01319V4.93226L11.3156 10.1161C10.9003 10.3892 10.3497 10.3892 9.93437 10.1161L2.125 4.93226V2.01319H19.125ZM2.125 7.04605V14.0922H19.125V7.04605L12.3781 11.5153C11.3252 12.2125 9.92476 12.2125 8.87187 11.5153L2.125 7.04605Z" fill="#707070"/>
</svg>
